<svg width="301" height="191" viewBox="0 0 301 191" fill="none" xmlns="http://www.w3.org/2000/svg">
<path d="M175.82 13.9503C175.82 13.9503 166.958 0.288793 159.942 1.02903C152.926 1.76927 153.296 6.93449 150.71 10.9976C148.123 15.0607 144.064 9.15109 140.017 10.6275C135.971 12.1038 137.431 14.6905 134.848 15.7968C132.265 16.903 126.352 10.9976 124.156 12.8441C121.96 14.6905 121.199 17.6433 119.722 18.3835C118.246 19.1237 115.293 16.537 113.817 18.3835L112.341 20.23H184.72C184.72 20.23 185.826 16.1669 182.873 14.3204C179.92 12.4739 179.143 14.6905 175.82 13.9503Z" fill="white" stroke="#858585" stroke-miterlimit="10"/>
<path d="M295.138 23.9517C295.138 23.9517 290.722 17.1292 287.226 17.5116C283.73 17.8941 283.899 20.4561 282.628 22.4753C281.358 24.4946 279.338 21.5542 277.282 22.2903C275.226 23.0264 275.995 24.3136 274.708 24.8647C273.421 25.4157 270.476 22.4753 269.362 23.3924C268.247 24.3095 267.889 25.7859 267.153 26.1519C266.417 26.5179 264.949 25.2348 264.213 26.1519L263.477 27.073H299.526C299.526 27.073 300.077 25.0497 298.605 24.1285C297.133 23.2074 296.792 24.3177 295.138 23.9517Z" fill="white" stroke="#858585" stroke-miterlimit="10"/>
<path d="M46.0235 20.304C46.0235 20.304 41.6109 13.4979 38.1153 13.8681C34.6198 14.2382 34.8254 16.8084 33.5176 18.8318C32.2099 20.8551 30.2277 17.9147 28.1715 18.6508C26.1152 19.3869 26.8966 20.6741 25.6094 21.2416C24.3222 21.8092 21.3777 18.8482 20.2633 19.7694C19.1488 20.6906 18.791 22.1587 18.0549 22.5288C17.3187 22.899 15.8465 21.6077 15.1104 22.5288L14.3784 23.4459H50.428C50.428 23.4459 50.979 21.4226 49.5068 20.5055C48.0345 19.5884 47.6808 20.6741 46.0235 20.304Z" fill="white" stroke="#858585" stroke-miterlimit="10"/>
<path d="M292.914 64.4839H299.247" stroke="#858585" stroke-miterlimit="10"/>
<path d="M275.349 105.394V108.635H285.071V64.4839H290.105" stroke="#858585" stroke-miterlimit="10"/>
<path d="M275.349 52.7552V102.96" stroke="#858585" stroke-miterlimit="10"/>
<path d="M91.8566 75.0487V106.032H116.971V59.623H131.147V75.826H138.845V44.6373H154.641V52.7388H162.743V36.9388H275.349V49.9423" stroke="#858585" stroke-miterlimit="10"/>
<path d="M91.8566 17.3472V72.6101" stroke="#858585" stroke-miterlimit="10"/>
<path d="M44.062 44.6989V84.2893H61.8812V8.18053H91.8567V14.7234" stroke="#858585" stroke-miterlimit="10"/>
<path d="M19.7574 85.9137V36.1286H44.0619V42.4494" stroke="#858585" stroke-miterlimit="10"/>
<path d="M1.52707 126.865H19.7575V88.5334" stroke="#858585" stroke-miterlimit="10"/>
<path d="M64.3116 14.6617H76.0608" stroke="#858585" stroke-miterlimit="10"/>
<path d="M69.4234 21.1428H76.0608" stroke="#858585" stroke-miterlimit="10"/>
<path d="M64.3116 21.1428H67.363" stroke="#858585" stroke-miterlimit="10"/>
<path d="M64.3116 27.6242H76.0608" stroke="#858585" stroke-miterlimit="10"/>
<path d="M64.3116 34.1053H76.0608" stroke="#858585" stroke-miterlimit="10"/>
<path d="M64.3116 40.5865H76.0608" stroke="#858585" stroke-miterlimit="10"/>
<path d="M64.3116 47.0676H76.0608" stroke="#858585" stroke-miterlimit="10"/>
<path d="M71.4836 53.549H76.0608" stroke="#858585" stroke-miterlimit="10"/>
<path d="M64.3116 53.549H69.0491" stroke="#858585" stroke-miterlimit="10"/>
<path d="M64.3116 60.0301H76.0608" stroke="#858585" stroke-miterlimit="10"/>
<path d="M64.3116 66.5113H76.0608" stroke="#858585" stroke-miterlimit="10"/>
<path d="M64.3116 72.9924H76.0608" stroke="#858585" stroke-miterlimit="10"/>
<path d="M79.3014 27.6488V78.6636" stroke="#858585" stroke-miterlimit="10"/>
<path d="M79.3014 10.611V25.4035" stroke="#858585" stroke-miterlimit="10"/>
<path d="M26.2346 40.5865H22.5909V44.2301H26.2346V40.5865Z" stroke="#858585" stroke-miterlimit="10"/>
<path d="M26.2346 47.8779H22.5909V51.5215H26.2346V47.8779Z" stroke="#858585" stroke-miterlimit="10"/>
<path d="M26.2346 55.1693H22.5909V58.8129H26.2346V55.1693Z" stroke="#858585" stroke-miterlimit="10"/>
<path d="M26.2346 62.4605H22.5909V66.1041H26.2346V62.4605Z" stroke="#858585" stroke-miterlimit="10"/>
<path d="M26.2346 69.7519H22.5909V73.3955H26.2346V69.7519Z" stroke="#858585" stroke-miterlimit="10"/>
<path d="M26.2346 77.0432H22.5909V80.6869H26.2346V77.0432Z" stroke="#858585" stroke-miterlimit="10"/>
<path d="M26.2346 84.3347H22.5909V87.9783H26.2346V84.3347Z" stroke="#858585" stroke-miterlimit="10"/>
<path d="M26.2346 91.6219H22.5909V95.2655H26.2346V91.6219Z" stroke="#858585" stroke-miterlimit="10"/>
<path d="M33.5259 40.5865H29.8823V44.2301H33.5259V40.5865Z" stroke="#858585" stroke-miterlimit="10"/>
<path d="M33.5259 47.8779H29.8823V51.5215H33.5259V47.8779Z" stroke="#858585" stroke-miterlimit="10"/>
<path d="M33.5259 55.1693H29.8823V58.8129H33.5259V55.1693Z" stroke="#858585" stroke-miterlimit="10"/>
<path d="M33.5259 62.4605H29.8823V66.1041H33.5259V62.4605Z" stroke="#858585" stroke-miterlimit="10"/>
<path d="M33.5259 69.7519H29.8823V73.3955H33.5259V69.7519Z" stroke="#858585" stroke-miterlimit="10"/>
<path d="M33.5259 77.0432H29.8823V80.6869H33.5259V77.0432Z" stroke="#858585" stroke-miterlimit="10"/>
<path d="M33.5259 84.3347H29.8823V87.9783H33.5259V84.3347Z" stroke="#858585" stroke-miterlimit="10"/>
<path d="M33.5259 91.6219H29.8823V95.2655H33.5259V91.6219Z" stroke="#858585" stroke-miterlimit="10"/>
<path d="M87.3988 12.2313H83.7552V15.8749H87.3988V12.2313Z" stroke="#858585" stroke-miterlimit="10"/>
<path d="M87.3988 19.5226H83.7552V23.1662H87.3988V19.5226Z" stroke="#858585" stroke-miterlimit="10"/>
<path d="M87.3988 26.8139H83.7552V30.4576H87.3988V26.8139Z" stroke="#858585" stroke-miterlimit="10"/>
<path d="M87.3988 34.1053H83.7552V37.7489H87.3988V34.1053Z" stroke="#858585" stroke-miterlimit="10"/>
<path d="M87.3988 41.3967H83.7552V45.0403H87.3988V41.3967Z" stroke="#858585" stroke-miterlimit="10"/>
<path d="M87.3988 48.6879H83.7552V52.3315H87.3988V48.6879Z" stroke="#858585" stroke-miterlimit="10"/>
<path d="M87.3988 55.9793H83.7552V59.6229H87.3988V55.9793Z" stroke="#858585" stroke-miterlimit="10"/>
<path d="M87.3988 63.2707H83.7552V66.9143H87.3988V63.2707Z" stroke="#858585" stroke-miterlimit="10"/>
<path d="M87.3988 71.1665H83.7552V74.8101H87.3988V71.1665Z" stroke="#858585" stroke-miterlimit="10"/>
<path d="M87.3988 78.4579H83.7552V82.1015H87.3988V78.4579Z" stroke="#858585" stroke-miterlimit="10"/>
<path d="M87.3988 85.7493H83.7552V89.3929H87.3988V85.7493Z" stroke="#858585" stroke-miterlimit="10"/>
<path d="M87.3988 93.0406H83.7552V96.6843H87.3988V93.0406Z" stroke="#858585" stroke-miterlimit="10"/>
<path d="M87.3988 100.332H83.7552V103.975H87.3988V100.332Z" stroke="#858585" stroke-miterlimit="10"/>
<path d="M87.3988 107.623H83.7552V111.267H87.3988V107.623Z" stroke="#858585" stroke-miterlimit="10"/>
<path d="M87.3988 114.915H83.7552V118.558H87.3988V114.915Z" stroke="#858585" stroke-miterlimit="10"/>
<path d="M87.3988 122.206H83.7552V125.85H87.3988V122.206Z" stroke="#858585" stroke-miterlimit="10"/>
<path d="M40.8172 40.5865H37.1736V44.2301H40.8172V40.5865Z" stroke="#858585" stroke-miterlimit="10"/>
<path d="M40.8172 47.8779H37.1736V51.5215H40.8172V47.8779Z" stroke="#858585" stroke-miterlimit="10"/>
<path d="M40.8172 55.1693H37.1736V58.8129H40.8172V55.1693Z" stroke="#858585" stroke-miterlimit="10"/>
<path d="M40.8172 62.4605H37.1736V66.1041H40.8172V62.4605Z" stroke="#858585" stroke-miterlimit="10"/>
<path d="M40.8172 69.7519H37.1736V73.3955H40.8172V69.7519Z" stroke="#858585" stroke-miterlimit="10"/>
<path d="M40.8172 77.0432H37.1736V80.6869H40.8172V77.0432Z" stroke="#858585" stroke-miterlimit="10"/>
<path d="M40.8172 84.3347H37.1736V87.9783H40.8172V84.3347Z" stroke="#858585" stroke-miterlimit="10"/>
<path d="M40.8172 91.6219H37.1736V95.2655H40.8172V91.6219Z" stroke="#858585" stroke-miterlimit="10"/>
<path d="M292.765 68.9418H289.122V72.5854H292.765V68.9418Z" stroke="#858585" stroke-miterlimit="10"/>
<path d="M292.765 76.233H289.122V79.8766H292.765V76.233Z" stroke="#858585" stroke-miterlimit="10"/>
<path d="M292.765 83.5244H289.122V87.168H292.765V83.5244Z" stroke="#858585" stroke-miterlimit="10"/>
<path d="M292.765 90.8116H289.122V94.4552H292.765V90.8116Z" stroke="#858585" stroke-miterlimit="10"/>
<path d="M292.765 98.103H289.122V101.747H292.765V98.103Z" stroke="#858585" stroke-miterlimit="10"/>
<path d="M292.765 105.394H289.122V109.038H292.765V105.394Z" stroke="#858585" stroke-miterlimit="10"/>
<path d="M292.765 112.686H289.122V116.329H292.765V112.686Z" stroke="#858585" stroke-miterlimit="10"/>
<path d="M292.765 119.977H289.122V123.621H292.765V119.977Z" stroke="#858585" stroke-miterlimit="10"/>
<path d="M271.093 42.4082H267.449V46.0519H271.093V42.4082Z" stroke="#858585" stroke-miterlimit="10"/>
<path d="M271.093 49.6996H267.449V53.3432H271.093V49.6996Z" stroke="#858585" stroke-miterlimit="10"/>
<path d="M271.093 56.991H267.449V60.6346H271.093V56.991Z" stroke="#858585" stroke-miterlimit="10"/>
<path d="M271.093 64.2824H267.449V67.926H271.093V64.2824Z" stroke="#858585" stroke-miterlimit="10"/>
<path d="M271.093 71.5736H267.449V75.2172H271.093V71.5736Z" stroke="#858585" stroke-miterlimit="10"/>
<path d="M271.093 78.865H267.449V82.5086H271.093V78.865Z" stroke="#858585" stroke-miterlimit="10"/>
<path d="M271.093 86.1564H267.449V89.8H271.093V86.1564Z" stroke="#858585" stroke-miterlimit="10"/>
<path d="M271.093 93.4478H267.449V97.0914H271.093V93.4478Z" stroke="#858585" stroke-miterlimit="10"/>
<path d="M187.051 36.7457H108.936V47.2776H187.051V36.7457Z" fill="#A1A1A1" stroke="#858585" stroke-miterlimit="10"/>
<path d="M187.047 36.7457H144.969V47.2776H187.047V36.7457Z" fill="#C9C9C9" stroke="#858585" stroke-miterlimit="10"/>
<path d="M144.973 36.7045H139.199V47.2858H144.973V36.7045Z" fill="#DEDEDE" stroke="#858585" stroke-miterlimit="10"/>
<path d="M150.722 36.7045H144.948V47.2858H150.722V36.7045Z" fill="white" stroke="#858585" stroke-miterlimit="10"/>
<path d="M114.709 36.7045H108.936V47.2858H114.709V36.7045Z" fill="#DEDEDE" stroke="#858585" stroke-miterlimit="10"/>
<path d="M187.051 36.7045H181.278V47.2858H187.051V36.7045Z" fill="white" stroke="#858585" stroke-miterlimit="10"/>
<path d="M145.29 29.6517H107.233V38.9499H145.29V29.6517Z" fill="#DEDEDE" stroke="#858585" stroke-miterlimit="10"/>
<path d="M188.902 29.6517H144.969V38.9499H188.902V29.6517Z" fill="white" stroke="#858585" stroke-miterlimit="10"/>
<path d="M187.051 55.3297H108.936V65.8617H187.051V55.3297Z" fill="#A1A1A1" stroke="#858585" stroke-miterlimit="10"/>
<path d="M187.047 55.3297H144.969V65.8617H187.047V55.3297Z" fill="#C9C9C9" stroke="#858585" stroke-miterlimit="10"/>
<path d="M187.051 73.9137H108.936V84.4457H187.051V73.9137Z" fill="#A1A1A1" stroke="#858585" stroke-miterlimit="10"/>
<path d="M187.047 73.9137H144.969V84.4457H187.047V73.9137Z" fill="#C9C9C9" stroke="#858585" stroke-miterlimit="10"/>
<path d="M187.051 90.4951H108.936V101.027H187.051V90.4951Z" fill="#A1A1A1" stroke="#858585" stroke-miterlimit="10"/>
<path d="M187.047 90.4951H144.969V101.027H187.047V90.4951Z" fill="#C9C9C9" stroke="#858585" stroke-miterlimit="10"/>
<path d="M187.051 107.077H108.936V117.609H187.051V107.077Z" fill="#A1A1A1" stroke="#858585" stroke-miterlimit="10"/>
<path d="M187.047 107.077H144.969V117.609H187.047V107.077Z" fill="#C9C9C9" stroke="#858585" stroke-miterlimit="10"/>
<path d="M187.051 125.944H108.936V136.476H187.051V125.944Z" fill="#A1A1A1" stroke="#858585" stroke-miterlimit="10"/>
<path d="M187.047 125.944H144.969V136.476H187.047V125.944Z" fill="#C9C9C9" stroke="#858585" stroke-miterlimit="10"/>
<path d="M187.051 143.097H108.936V153.629H187.051V143.097Z" fill="#A1A1A1" stroke="#858585" stroke-miterlimit="10"/>
<path d="M187.047 143.097H144.969V153.629H187.047V143.097Z" fill="#C9C9C9" stroke="#858585" stroke-miterlimit="10"/>
<path d="M144.973 54.281H139.199V64.8623H144.973V54.281Z" fill="#DEDEDE" stroke="#858585" stroke-miterlimit="10"/>
<path d="M150.722 54.281H144.948V64.8623H150.722V54.281Z" fill="white" stroke="#858585" stroke-miterlimit="10"/>
<path d="M114.709 54.281H108.936V64.8623H114.709V54.281Z" fill="#DEDEDE" stroke="#858585" stroke-miterlimit="10"/>
<path d="M187.051 54.281H181.278V64.8623H187.051V54.281Z" fill="white" stroke="#858585" stroke-miterlimit="10"/>
<path d="M145.29 47.2241H107.233V56.5223H145.29V47.2241Z" fill="#DEDEDE" stroke="#858585" stroke-miterlimit="10"/>
<path d="M188.902 47.2241H144.969V56.5223H188.902V47.2241Z" fill="white" stroke="#858585" stroke-miterlimit="10"/>
<path d="M144.973 71.8577H139.199V82.439H144.973V71.8577Z" fill="#DEDEDE" stroke="#858585" stroke-miterlimit="10"/>
<path d="M150.722 71.8577H144.948V82.439H150.722V71.8577Z" fill="white" stroke="#858585" stroke-miterlimit="10"/>
<path d="M114.709 71.8577H108.936V82.439H114.709V71.8577Z" fill="#DEDEDE" stroke="#858585" stroke-miterlimit="10"/>
<path d="M187.051 71.8577H181.278V82.439H187.051V71.8577Z" fill="white" stroke="#858585" stroke-miterlimit="10"/>
<path d="M145.29 64.8006H107.233V74.0988H145.29V64.8006Z" fill="#DEDEDE" stroke="#858585" stroke-miterlimit="10"/>
<path d="M188.902 64.8006H144.969V74.0988H188.902V64.8006Z" fill="white" stroke="#858585" stroke-miterlimit="10"/>
<path d="M144.973 89.43H139.199V100.011H144.973V89.43Z" fill="#DEDEDE" stroke="#858585" stroke-miterlimit="10"/>
<path d="M150.722 89.43H144.948V100.011H150.722V89.43Z" fill="white" stroke="#858585" stroke-miterlimit="10"/>
<path d="M114.709 89.43H108.936V100.011H114.709V89.43Z" fill="#DEDEDE" stroke="#858585" stroke-miterlimit="10"/>
<path d="M187.051 89.43H181.278V100.011H187.051V89.43Z" fill="white" stroke="#858585" stroke-miterlimit="10"/>
<path d="M145.29 82.3773H107.233V91.6755H145.29V82.3773Z" fill="#DEDEDE" stroke="#858585" stroke-miterlimit="10"/>
<path d="M188.902 82.3773H144.969V91.6755H188.902V82.3773Z" fill="white" stroke="#858585" stroke-miterlimit="10"/>
<path d="M144.973 107.007H139.199V117.588H144.973V107.007Z" fill="#DEDEDE" stroke="#858585" stroke-miterlimit="10"/>
<path d="M150.722 107.007H144.948V117.588H150.722V107.007Z" fill="white" stroke="#858585" stroke-miterlimit="10"/>
<path d="M114.709 107.007H108.936V117.588H114.709V107.007Z" fill="#DEDEDE" stroke="#858585" stroke-miterlimit="10"/>
<path d="M187.051 107.007H181.278V117.588H187.051V107.007Z" fill="white" stroke="#858585" stroke-miterlimit="10"/>
<path d="M145.29 99.9538H107.233V109.252H145.29V99.9538Z" fill="#DEDEDE" stroke="#858585" stroke-miterlimit="10"/>
<path d="M188.902 99.9538H144.969V109.252H188.902V99.9538Z" fill="white" stroke="#858585" stroke-miterlimit="10"/>
<path d="M144.973 124.583H139.199V135.164H144.973V124.583Z" fill="#DEDEDE" stroke="#858585" stroke-miterlimit="10"/>
<path d="M150.722 124.583H144.948V135.164H150.722V124.583Z" fill="white" stroke="#858585" stroke-miterlimit="10"/>
<path d="M114.709 124.583H108.936V135.164H114.709V124.583Z" fill="#DEDEDE" stroke="#858585" stroke-miterlimit="10"/>
<path d="M187.051 124.583H181.278V135.164H187.051V124.583Z" fill="white" stroke="#858585" stroke-miterlimit="10"/>
<path d="M145.29 117.53H107.233V126.828H145.29V117.53Z" fill="#DEDEDE" stroke="#858585" stroke-miterlimit="10"/>
<path d="M188.902 117.53H144.969V126.828H188.902V117.53Z" fill="white" stroke="#858585" stroke-miterlimit="10"/>
<path d="M144.973 142.16H139.199V152.741H144.973V142.16Z" fill="#DEDEDE" stroke="#858585" stroke-miterlimit="10"/>
<path d="M150.722 142.16H144.948V152.741H150.722V142.16Z" fill="white" stroke="#858585" stroke-miterlimit="10"/>
<path d="M114.709 142.16H108.936V152.741H114.709V142.16Z" fill="#DEDEDE" stroke="#858585" stroke-miterlimit="10"/>
<path d="M187.051 142.16H181.278V152.741H187.051V142.16Z" fill="white" stroke="#858585" stroke-miterlimit="10"/>
<path d="M145.29 135.103H107.233V144.401H145.29V135.103Z" fill="#DEDEDE" stroke="#858585" stroke-miterlimit="10"/>
<path d="M188.902 135.103H144.969V144.401H188.902V135.103Z" fill="white" stroke="#858585" stroke-miterlimit="10"/>
<path d="M187.051 159.777H108.936V170.309H187.051V159.777Z" fill="#C9C9C9" stroke="#858585" stroke-miterlimit="10"/>
<path d="M144.973 159.777H108.936V170.309H144.973V159.777Z" fill="#A1A1A1" stroke="#858585" stroke-miterlimit="10"/>
<path d="M144.973 159.736H139.199V170.318H144.973V159.736Z" fill="#DEDEDE" stroke="#858585" stroke-miterlimit="10"/>
<path d="M150.722 159.736H144.948V170.318H150.722V159.736Z" fill="white" stroke="#858585" stroke-miterlimit="10"/>
<path d="M114.709 159.736H108.936V170.318H114.709V159.736Z" fill="#DEDEDE" stroke="#858585" stroke-miterlimit="10"/>
<path d="M187.051 159.736H181.278V170.318H187.051V159.736Z" fill="white" stroke="#858585" stroke-miterlimit="10"/>
<path d="M145.29 152.679H107.233V161.978H145.29V152.679Z" fill="#DEDEDE" stroke="#858585" stroke-miterlimit="10"/>
<path d="M188.902 152.679H144.969V161.978H188.902V152.679Z" fill="white" stroke="#858585" stroke-miterlimit="10"/>
<path d="M187.051 177.49H108.936V188.021H187.051V177.49Z" fill="#C9C9C9" stroke="#858585" stroke-miterlimit="10"/>
<path d="M144.973 177.49H108.936V188.021H144.973V177.49Z" fill="#A1A1A1" stroke="#858585" stroke-miterlimit="10"/>
<path d="M144.973 177.444H139.199V188.026H144.973V177.444Z" fill="#DEDEDE" stroke="#858585" stroke-miterlimit="10"/>
<path d="M150.722 177.444H144.948V188.026H150.722V177.444Z" fill="white" stroke="#858585" stroke-miterlimit="10"/>
<path d="M114.709 177.444H108.936V188.026H114.709V177.444Z" fill="#DEDEDE" stroke="#858585" stroke-miterlimit="10"/>
<path d="M187.051 177.444H181.278V188.026H187.051V177.444Z" fill="white" stroke="#858585" stroke-miterlimit="10"/>
<path d="M145.29 170.391H107.233V179.69H145.29V170.391Z" fill="#DEDEDE" stroke="#858585" stroke-miterlimit="10"/>
<path d="M188.902 170.391H144.969V179.69H188.902V170.391Z" fill="white" stroke="#858585" stroke-miterlimit="10"/>
<path d="M263.247 11.1581H171.918V23.4707H263.247V11.1581Z" fill="#A1A1A1" stroke="#858585" stroke-miterlimit="10"/>
<path d="M263.246 11.1581H214.049V23.4707H263.246V11.1581Z" fill="#C9C9C9" stroke="#858585" stroke-miterlimit="10"/>
<path d="M214.049 11.1087H207.301V23.4789H214.049V11.1087Z" fill="#DEDEDE" stroke="#858585" stroke-miterlimit="10"/>
<path d="M220.769 11.1087H214.021V23.4789H220.769V11.1087Z" fill="white" stroke="#858585" stroke-miterlimit="10"/>
<path d="M178.666 11.1087H171.918V23.4789H178.666V11.1087Z" fill="#DEDEDE" stroke="#858585" stroke-miterlimit="10"/>
<path d="M263.247 11.1087H256.498V23.4789H263.247V11.1087Z" fill="white" stroke="#858585" stroke-miterlimit="10"/>
<path d="M214.428 2.85916H169.931V13.7324H214.428V2.85916Z" fill="#DEDEDE" stroke="#858585" stroke-miterlimit="10"/>
<path d="M265.414 2.85916H214.049V13.7324H265.414V2.85916Z" fill="white" stroke="#858585" stroke-miterlimit="10"/>
<path d="M263.247 32.884H171.918V45.1966H263.247V32.884Z" fill="#A1A1A1" stroke="#858585" stroke-miterlimit="10"/>
<path d="M263.246 32.884H214.049V45.1966H263.246V32.884Z" fill="#C9C9C9" stroke="#858585" stroke-miterlimit="10"/>
<path d="M263.247 54.61H171.918V66.9227H263.247V54.61Z" fill="#A1A1A1" stroke="#858585" stroke-miterlimit="10"/>
<path d="M263.246 54.61H214.049V66.9227H263.246V54.61Z" fill="#C9C9C9" stroke="#858585" stroke-miterlimit="10"/>
<path d="M263.247 73.9962H171.918V86.3088H263.247V73.9962Z" fill="#A1A1A1" stroke="#858585" stroke-miterlimit="10"/>
<path d="M263.246 73.9962H214.049V86.3088H263.246V73.9962Z" fill="#C9C9C9" stroke="#858585" stroke-miterlimit="10"/>
<path d="M263.247 93.3821H171.918V105.695H263.247V93.3821Z" fill="#A1A1A1" stroke="#858585" stroke-miterlimit="10"/>
<path d="M263.246 93.3821H214.049V105.695H263.246V93.3821Z" fill="#C9C9C9" stroke="#858585" stroke-miterlimit="10"/>
<path d="M263.247 115.445H171.918V127.758H263.247V115.445Z" fill="#A1A1A1" stroke="#858585" stroke-miterlimit="10"/>
<path d="M263.246 115.445H214.049V127.758H263.246V115.445Z" fill="#C9C9C9" stroke="#858585" stroke-miterlimit="10"/>
<path d="M263.247 135.497H171.918V147.81H263.247V135.497Z" fill="#A1A1A1" stroke="#858585" stroke-miterlimit="10"/>
<path d="M263.246 135.497H214.049V147.81H263.246V135.497Z" fill="#C9C9C9" stroke="#858585" stroke-miterlimit="10"/>
<path d="M214.049 31.6586H207.301V44.0288H214.049V31.6586Z" fill="#DEDEDE" stroke="#858585" stroke-miterlimit="10"/>
<path d="M220.769 31.6586H214.021V44.0288H220.769V31.6586Z" fill="white" stroke="#858585" stroke-miterlimit="10"/>
<path d="M178.666 31.6586H171.918V44.0288H178.666V31.6586Z" fill="#DEDEDE" stroke="#858585" stroke-miterlimit="10"/>
<path d="M263.247 31.6586H256.498V44.0288H263.247V31.6586Z" fill="white" stroke="#858585" stroke-miterlimit="10"/>
<path d="M214.428 23.4091H169.931V34.2823H214.428V23.4091Z" fill="#DEDEDE" stroke="#858585" stroke-miterlimit="10"/>
<path d="M265.414 23.4091H214.049V34.2823H265.414V23.4091Z" fill="white" stroke="#858585" stroke-miterlimit="10"/>
<path d="M214.049 52.2042H207.301V64.5744H214.049V52.2042Z" fill="#DEDEDE" stroke="#858585" stroke-miterlimit="10"/>
<path d="M220.769 52.2042H214.021V64.5744H220.769V52.2042Z" fill="white" stroke="#858585" stroke-miterlimit="10"/>
<path d="M178.666 52.2042H171.918V64.5744H178.666V52.2042Z" fill="#DEDEDE" stroke="#858585" stroke-miterlimit="10"/>
<path d="M263.247 52.2042H256.498V64.5744H263.247V52.2042Z" fill="white" stroke="#858585" stroke-miterlimit="10"/>
<path d="M214.428 43.9588H169.931V54.8321H214.428V43.9588Z" fill="#DEDEDE" stroke="#858585" stroke-miterlimit="10"/>
<path d="M265.414 43.9588H214.049V54.8321H265.414V43.9588Z" fill="white" stroke="#858585" stroke-miterlimit="10"/>
<path d="M214.049 72.7541H207.301V85.1243H214.049V72.7541Z" fill="#DEDEDE" stroke="#858585" stroke-miterlimit="10"/>
<path d="M220.769 72.7541H214.021V85.1243H220.769V72.7541Z" fill="white" stroke="#858585" stroke-miterlimit="10"/>
<path d="M178.666 72.7541H171.918V85.1243H178.666V72.7541Z" fill="#DEDEDE" stroke="#858585" stroke-miterlimit="10"/>
<path d="M263.247 72.7541H256.498V85.1243H263.247V72.7541Z" fill="white" stroke="#858585" stroke-miterlimit="10"/>
<path d="M214.428 64.5045H169.931V75.3778H214.428V64.5045Z" fill="#DEDEDE" stroke="#858585" stroke-miterlimit="10"/>
<path d="M265.414 64.5045H214.049V75.3778H265.414V64.5045Z" fill="white" stroke="#858585" stroke-miterlimit="10"/>
<path d="M214.049 93.3038H207.301V105.674H214.049V93.3038Z" fill="#DEDEDE" stroke="#858585" stroke-miterlimit="10"/>
<path d="M220.769 93.3038H214.021V105.674H220.769V93.3038Z" fill="white" stroke="#858585" stroke-miterlimit="10"/>
<path d="M178.666 93.3038H171.918V105.674H178.666V93.3038Z" fill="#DEDEDE" stroke="#858585" stroke-miterlimit="10"/>
<path d="M263.247 93.3038H256.498V105.674H263.247V93.3038Z" fill="white" stroke="#858585" stroke-miterlimit="10"/>
<path d="M214.428 85.0544H169.931V95.9277H214.428V85.0544Z" fill="#DEDEDE" stroke="#858585" stroke-miterlimit="10"/>
<path d="M265.414 85.0544H214.049V95.9277H265.414V85.0544Z" fill="white" stroke="#858585" stroke-miterlimit="10"/>
<path d="M214.049 113.85H207.301V126.22H214.049V113.85Z" fill="#DEDEDE" stroke="#858585" stroke-miterlimit="10"/>
<path d="M220.769 113.85H214.021V126.22H220.769V113.85Z" fill="white" stroke="#858585" stroke-miterlimit="10"/>
<path d="M178.666 113.85H171.918V126.22H178.666V113.85Z" fill="#DEDEDE" stroke="#858585" stroke-miterlimit="10"/>
<path d="M263.247 113.85H256.498V126.22H263.247V113.85Z" fill="white" stroke="#858585" stroke-miterlimit="10"/>
<path d="M214.428 105.604H169.931V116.477H214.428V105.604Z" fill="#DEDEDE" stroke="#858585" stroke-miterlimit="10"/>
<path d="M265.414 105.604H214.049V116.477H265.414V105.604Z" fill="white" stroke="#858585" stroke-miterlimit="10"/>
<path d="M214.049 134.399H207.301V146.77H214.049V134.399Z" fill="#DEDEDE" stroke="#858585" stroke-miterlimit="10"/>
<path d="M220.769 134.399H214.021V146.77H220.769V134.399Z" fill="white" stroke="#858585" stroke-miterlimit="10"/>
<path d="M178.666 134.399H171.918V146.77H178.666V134.399Z" fill="#DEDEDE" stroke="#858585" stroke-miterlimit="10"/>
<path d="M263.247 134.399H256.498V146.77H263.247V134.399Z" fill="white" stroke="#858585" stroke-miterlimit="10"/>
<path d="M214.428 126.154H169.931V137.027H214.428V126.154Z" fill="#DEDEDE" stroke="#858585" stroke-miterlimit="10"/>
<path d="M265.414 126.154H214.049V137.027H265.414V126.154Z" fill="white" stroke="#858585" stroke-miterlimit="10"/>
<path d="M263.247 154.999H171.918V167.311H263.247V154.999Z" fill="#C9C9C9" stroke="#858585" stroke-miterlimit="10"/>
<path d="M214.049 154.999H171.918V167.311H214.049V154.999Z" fill="#A1A1A1" stroke="#858585" stroke-miterlimit="10"/>
<path d="M214.049 154.949H207.301V167.32H214.049V154.949Z" fill="#DEDEDE" stroke="#858585" stroke-miterlimit="10"/>
<path d="M220.769 154.949H214.021V167.32H220.769V154.949Z" fill="white" stroke="#858585" stroke-miterlimit="10"/>
<path d="M178.666 154.949H171.918V167.32H178.666V154.949Z" fill="#DEDEDE" stroke="#858585" stroke-miterlimit="10"/>
<path d="M263.247 154.949H256.498V167.32H263.247V154.949Z" fill="white" stroke="#858585" stroke-miterlimit="10"/>
<path d="M214.428 146.7H169.931V157.573H214.428V146.7Z" fill="#DEDEDE" stroke="#858585" stroke-miterlimit="10"/>
<path d="M265.414 146.7H214.049V157.573H265.414V146.7Z" fill="white" stroke="#858585" stroke-miterlimit="10"/>
<path d="M263.247 175.705H171.918V188.017H263.247V175.705Z" fill="#C9C9C9" stroke="#858585" stroke-miterlimit="10"/>
<path d="M214.049 175.705H171.918V188.017H214.049V175.705Z" fill="#A1A1A1" stroke="#858585" stroke-miterlimit="10"/>
<path d="M214.049 175.655H207.301V188.026H214.049V175.655Z" fill="#DEDEDE" stroke="#858585" stroke-miterlimit="10"/>
<path d="M220.769 175.655H214.021V188.026H220.769V175.655Z" fill="white" stroke="#858585" stroke-miterlimit="10"/>
<path d="M178.666 175.655H171.918V188.026H178.666V175.655Z" fill="#DEDEDE" stroke="#858585" stroke-miterlimit="10"/>
<path d="M263.247 175.655H256.498V188.026H263.247V175.655Z" fill="white" stroke="#858585" stroke-miterlimit="10"/>
<path d="M214.428 167.41H169.931V178.283H214.428V167.41Z" fill="#DEDEDE" stroke="#858585" stroke-miterlimit="10"/>
<path d="M265.414 167.41H214.049V178.283H265.414V167.41Z" fill="white" stroke="#858585" stroke-miterlimit="10"/>
<path d="M59.3601 123.641C64.99 152.186 47.3024 140.297 32.4319 140.297C17.5613 140.297 -1.28599 149.961 5.48718 123.641C9.36521 108.594 17.5407 99.1846 32.4154 99.1846C47.2901 99.1846 56.9831 111.596 59.3601 123.641Z" fill="#005597"/>
<path opacity="0.58" d="M59.3601 123.641C64.99 152.186 47.3024 140.297 32.4319 140.297C17.5613 140.297 -1.28599 149.961 5.48718 123.641C9.36521 108.594 17.5407 99.1846 32.4154 99.1846C47.2901 99.1846 56.9831 111.596 59.3601 123.641Z" fill="white"/>
<path d="M25.235 135.094L31.3585 139.77L30.7334 187.877H34.4346L33.7231 132.105L42.4826 122.469L33.6162 130.044L33.2954 115.696L32.329 125.533L30.0466 123.876L25.0747 116.827L28.27 123.234L17.9807 119.085L28.4674 125.011L31.9178 127.4L31.523 137.837L25.235 135.094Z" fill="#A1A1A1"/>
<path d="M28.0356 109.967C27.8137 111.104 27.9577 112.282 28.4469 113.331C28.9625 114.273 29.6215 115.129 30.4003 115.869C30.4003 115.869 31.2351 112.969 28.0356 109.967Z" fill="white"/>
<path d="M12.6182 126.211C13.5118 126.945 14.6144 127.377 15.7683 127.445C16.8436 127.449 17.9131 127.286 18.939 126.964C18.939 126.964 16.7923 124.875 12.6182 126.211Z" fill="white"/>
<path d="M10.455 133.832C11.5276 134.273 12.7123 134.364 13.8396 134.091C14.8659 133.775 15.8371 133.302 16.7183 132.689C16.7183 132.689 14.0411 131.303 10.455 133.832Z" fill="white"/>
<path d="M20.7361 134.626C21.8943 134.581 23.0087 134.171 23.9191 133.454C24.7279 132.742 25.4216 131.91 25.9753 130.986C25.9753 130.986 22.9444 130.834 20.7361 134.626Z" fill="white"/>
<path d="M16.4016 111.867C16.6939 112.991 17.3363 113.992 18.2357 114.725C19.1063 115.357 20.0689 115.851 21.0897 116.19C21.0897 116.19 20.5757 113.212 16.4016 111.867Z" fill="white"/>
<path d="M47.0721 110.51C45.9295 110.701 44.8769 111.25 44.0659 112.077C43.3612 112.887 42.7856 113.801 42.3593 114.787C42.3593 114.787 45.3778 114.553 47.0721 110.51Z" fill="white"/>
<path d="M53.5286 120.191C52.3898 119.976 51.2124 120.128 50.1647 120.623C49.2237 121.14 48.3679 121.799 47.6273 122.576C47.6273 122.576 50.5307 123.395 53.5286 120.191Z" fill="white"/>
<path d="M52.8994 131.188C52.0622 130.386 50.9924 129.871 49.8439 129.715C48.772 129.635 47.6942 129.721 46.6485 129.97C46.6485 129.97 48.6389 132.236 52.8994 131.188Z" fill="white"/>
<path d="M45.6944 137.089C45.1962 136.042 44.3802 135.178 43.3627 134.621C42.3894 134.167 41.3519 133.864 40.2866 133.725C40.2866 133.725 41.3394 136.55 45.6944 137.089Z" fill="white"/>
<path d="M41.9028 119.245C40.7591 119.437 39.7054 119.985 38.8925 120.812C38.1895 121.624 37.614 122.537 37.1858 123.522C37.1858 123.522 40.1961 123.288 41.9028 119.245Z" fill="white"/>
<path d="M11.3803 116.819C11.9158 117.847 12.764 118.677 13.8026 119.192C14.7924 119.611 15.8411 119.875 16.9116 119.973C16.9116 119.973 15.7683 117.189 11.3803 116.819Z" fill="white"/>
<path d="M37.9425 107.919C37.0319 108.636 36.3711 109.622 36.0549 110.736C35.8247 111.785 35.7581 112.863 35.8575 113.932C35.8575 113.932 38.3867 112.283 37.9425 107.919Z" fill="white"/>
<path d="M32.255 102.594C31.7546 103.64 31.5977 104.817 31.8067 105.958C32.0632 107.001 32.4794 107.998 33.0405 108.915C33.0405 108.915 34.5785 106.316 32.255 102.594Z" fill="white"/>
<path d="M19.9424 104.383C19.9671 105.549 20.3617 106.676 21.0692 107.603C21.7816 108.411 22.6138 109.104 23.5367 109.659C23.5367 109.659 23.7053 106.641 19.9424 104.383Z" fill="white"/>
<path d="M299.115 134.823C303.766 158.395 289.159 148.579 276.879 148.579C264.599 148.579 249.034 156.574 254.643 134.823C257.859 122.408 264.612 114.627 276.908 114.627C289.204 114.627 297.17 124.875 299.115 134.823Z" fill="#005597"/>
<path opacity="0.58" d="M299.115 134.823C303.766 158.395 289.159 148.579 276.879 148.579C264.599 148.579 249.034 156.574 254.643 134.823C257.859 122.408 264.612 114.627 276.908 114.627C289.204 114.627 297.17 124.875 299.115 134.823Z" fill="white"/>
<path d="M270.949 144.29L276.007 148.151L275.489 187.877H278.545L277.956 141.818L285.194 133.865L277.87 140.12L277.607 128.272L276.805 136.39L274.922 135.029L270.817 129.201L273.457 134.498L264.957 131.068L273.618 135.962L276.468 137.936L276.139 146.552L270.949 144.29Z" fill="#A1A1A1"/>
<path d="M273.26 123.538C273.081 124.479 273.205 125.453 273.614 126.318C274.042 127.096 274.587 127.803 275.23 128.416C275.23 128.416 275.904 126.018 273.26 123.538Z" fill="white"/>
<path d="M260.528 136.953C261.267 137.564 262.179 137.925 263.135 137.985C264.023 137.984 264.905 137.845 265.751 137.574C265.751 137.574 263.978 135.835 260.528 136.953Z" fill="white"/>
<path d="M258.747 143.249C259.632 143.612 260.61 143.687 261.54 143.463C262.387 143.2 263.188 142.809 263.917 142.303C263.917 142.303 261.692 141.156 258.747 143.249Z" fill="white"/>
<path d="M267.235 143.903C268.192 143.867 269.112 143.529 269.863 142.937C270.528 142.343 271.095 141.649 271.545 140.881C271.545 140.881 269.057 140.77 267.235 143.903Z" fill="white"/>
<path d="M263.653 125.109C263.894 126.036 264.422 126.863 265.163 127.47C265.88 127.99 266.673 128.397 267.515 128.675C267.515 128.675 267.104 126.22 263.653 125.109Z" fill="white"/>
<path d="M288.986 123.987C288.048 124.148 287.184 124.601 286.519 125.282C285.937 125.951 285.463 126.705 285.112 127.519C285.112 127.519 287.576 127.342 288.986 123.987Z" fill="white"/>
<path d="M294.316 131.981C293.375 131.805 292.402 131.93 291.536 132.339C290.76 132.766 290.054 133.31 289.443 133.951C289.443 133.951 291.84 134.63 294.316 131.981Z" fill="white"/>
<path d="M293.793 141.062C293.104 140.393 292.22 139.961 291.268 139.828C290.384 139.765 289.495 139.837 288.632 140.042C288.632 140.042 290.273 141.929 293.793 141.062Z" fill="white"/>
<path d="M287.843 145.935C287.434 145.07 286.762 144.358 285.922 143.899C285.119 143.522 284.261 143.273 283.381 143.159C283.381 143.159 284.249 145.491 287.843 145.935Z" fill="white"/>
<path d="M284.721 131.2C283.783 131.361 282.92 131.815 282.254 132.495C281.672 133.164 281.196 133.919 280.843 134.733C280.843 134.733 283.303 134.539 284.721 131.2Z" fill="white"/>
<path d="M259.508 129.197C259.95 130.046 260.65 130.733 261.507 131.159C262.324 131.503 263.19 131.719 264.073 131.8C264.073 131.8 263.119 129.502 259.508 129.197Z" fill="white"/>
<path d="M281.432 121.848C280.68 122.439 280.134 123.252 279.873 124.172C279.682 125.04 279.627 125.931 279.708 126.816C279.708 126.816 281.81 125.451 281.432 121.848Z" fill="white"/>
<path d="M276.747 117.473C276.332 118.335 276.201 119.307 276.373 120.248C276.587 121.109 276.932 121.932 277.397 122.687C277.397 122.687 278.664 120.524 276.747 117.473Z" fill="white"/>
<path d="M266.577 118.928C266.601 119.885 266.928 120.809 267.511 121.569C268.092 122.239 268.773 122.816 269.53 123.279C269.53 123.279 269.686 120.791 266.577 118.928Z" fill="white"/>
<path d="M98.2184 109.659C105.074 144.413 83.537 129.937 65.43 129.937C47.3229 129.937 24.3756 141.736 32.6292 109.659C37.3544 91.3381 47.3106 79.8808 65.4177 79.8808C83.5247 79.8808 95.3274 94.9981 98.2184 109.659Z" fill="#005597"/>
<path opacity="0.3" d="M98.2184 109.659C105.074 144.413 83.537 129.937 65.43 129.937C47.3229 129.937 24.3756 141.736 32.6292 109.659C37.3544 91.3381 47.3106 79.8808 65.4177 79.8808C83.5247 79.8808 95.3274 94.9981 98.2184 109.659Z" fill="white"/>
<path d="M56.6664 123.612L64.1264 129.304L63.3615 187.878H67.8687L67.0051 119.969L77.6686 108.236L66.8735 117.46L66.4828 99.9948L65.3025 111.966L62.5266 109.951L56.4731 101.368L60.3635 109.17L47.8329 104.115L60.6061 111.329L64.809 114.244L64.3238 126.948L56.6664 123.612Z" fill="#A1A1A1"/>
<path d="M60.0756 93.0159C60.0756 93.0159 59.5945 95.2531 60.5979 97.1284C61.2288 98.2688 62.032 99.305 62.979 100.2C62.979 100.2 63.9742 96.6678 60.0756 93.0159Z" fill="white"/>
<path d="M41.3065 112.793C41.3065 112.793 43.0337 114.298 45.1434 114.318C46.4517 114.32 47.7526 114.122 49.0009 113.73C49.0009 113.73 46.3895 111.148 41.3065 112.793Z" fill="white"/>
<path d="M38.6745 122.074C38.6745 122.074 40.7718 123 42.7869 122.391C44.036 122.003 45.2188 121.428 46.2948 120.684C46.2948 120.684 43.0419 118.994 38.6745 122.074Z" fill="white"/>
<path d="M51.1927 123.041C51.1927 123.041 53.4834 123.008 55.0708 121.614C56.0423 120.742 56.8744 119.727 57.5382 118.604C57.5382 118.604 53.8823 118.423 51.1927 123.041Z" fill="white"/>
<path d="M45.9124 95.3312C45.9124 95.3312 46.4306 97.5602 48.1331 98.8104C49.1922 99.5779 50.3628 100.178 51.604 100.591C51.604 100.591 50.9995 96.968 45.9124 95.3312Z" fill="white"/>
<path d="M83.2615 93.6781C83.2615 93.6781 80.9915 93.9988 79.5973 95.5821C78.7414 96.5665 78.041 97.6759 77.5206 98.8721C77.5206 98.8721 81.1806 98.5965 83.2615 93.6781Z" fill="white"/>
<path d="M91.1204 105.464C91.1204 105.464 88.8791 104.983 87.008 105.987C85.8613 106.617 84.8183 107.42 83.9154 108.368C83.9154 108.368 87.4686 109.363 91.1204 105.464Z" fill="white"/>
<path d="M90.3513 118.854C90.3513 118.854 88.7352 117.209 86.6296 117.057C85.3258 116.961 84.015 117.066 82.7433 117.37C82.7433 117.37 85.1615 120.133 90.3513 118.854Z" fill="white"/>
<path d="M81.5673 126.039C81.5673 126.039 80.6378 123.941 78.7297 123.037C77.5444 122.481 76.2809 122.111 74.9832 121.939C74.9832 121.939 76.2745 125.385 81.5673 126.039Z" fill="white"/>
<path d="M76.9612 104.313C76.9612 104.313 74.6953 104.634 73.3012 106.217C72.4429 107.2 71.7411 108.31 71.2203 109.507C71.2203 109.507 74.8845 109.248 76.9612 104.313Z" fill="white"/>
<path d="M39.7972 101.356C39.7972 101.356 40.8089 103.412 42.7499 104.235C43.9547 104.744 45.2309 105.065 46.5334 105.185C46.5334 105.185 45.1228 101.808 39.7972 101.356Z" fill="white"/>
<path d="M72.1415 90.5197C72.1415 90.5197 70.3074 91.8892 69.8427 93.9495C69.5629 95.2276 69.4825 96.5413 69.6041 97.844C69.6041 97.844 72.6802 95.8371 72.1415 90.5197Z" fill="white"/>
<path d="M65.2161 84.0386C65.2161 84.0386 64.1757 86.0948 64.6692 88.151C64.9829 89.422 65.4906 90.6371 66.1743 91.7535C66.1743 91.7535 68.0455 88.5705 65.2161 84.0386Z" fill="white"/>
<path d="M50.2222 86.2181C50.2222 86.2181 50.2222 88.5087 51.5999 90.1126C52.4572 91.1007 53.4614 91.9509 54.5773 92.6335C54.5773 92.6335 54.8076 88.9652 50.2222 86.2181Z" fill="white"/>
<path d="M1.18561 188.03H298.556" stroke="#263238" stroke-miterlimit="10"/>
<path d="M231.474 157.174H121.219V175.256H231.474V157.174Z" fill="#263238" stroke="#263238" stroke-miterlimit="10"/>
<path d="M45.9617 115.626C45.5109 115.626 45.0785 115.805 44.7593 116.123C44.4401 116.442 44.2603 116.874 44.2592 117.324V121.437H45.5998V117.324C45.5998 117.229 45.638 117.136 45.7058 117.069C45.7737 117.001 45.8658 116.963 45.9617 116.963H46.8747C47.068 116.963 47.2859 117.695 47.3723 117.834C47.5856 118.331 47.9378 118.755 48.3866 119.055C48.8353 119.356 49.3614 119.52 49.9014 119.529H58.9036V115.614L45.9617 115.626ZM57.5711 118.205H49.9014C49.6698 118.205 49.4417 118.148 49.2372 118.039C49.0328 117.93 48.8584 117.772 48.7294 117.579L48.3182 116.963H57.5588L57.5711 118.205Z" fill="white" stroke="#263238" stroke-miterlimit="10"/>
<path d="M48.5362 119.804H43.8357C43.2156 119.804 42.713 120.307 42.713 120.927V132.096C42.713 132.716 43.2156 133.219 43.8357 133.219H48.5362C49.1562 133.219 49.6589 132.716 49.6589 132.096V120.927C49.6589 120.307 49.1562 119.804 48.5362 119.804Z" fill="white" stroke="#263238" stroke-miterlimit="10"/>
<path d="M128.359 103.585H97.4084C96.7627 103.583 96.1273 103.746 95.5619 104.058L86.6667 108.906H119.714L128.359 103.585Z" fill="#005597" stroke="#263238" stroke-miterlimit="10"/>
<path d="M118.168 108.906L125.04 104.268C125.684 103.826 126.446 103.588 127.228 103.585H188.03C188.823 103.588 189.595 103.832 190.247 104.284L197.308 109.128L118.168 108.906Z" fill="#005597" stroke="#263238" stroke-miterlimit="10"/>
<path d="M148.493 175.824C148.495 173.636 147.901 171.488 146.774 169.612C145.648 167.736 144.031 166.203 142.098 165.177V163.766H136.444C134.842 163.737 133.251 164.026 131.763 164.619C130.275 165.211 128.92 166.094 127.777 167.216C126.634 168.338 125.726 169.677 125.106 171.154C124.487 172.631 124.167 174.216 124.167 175.818C124.167 177.419 124.487 179.005 125.106 180.482C125.726 181.959 126.634 183.297 127.777 184.419C128.92 185.541 130.275 186.424 131.763 187.017C133.251 187.609 134.842 187.899 136.444 187.869H142.098V186.459C144.029 185.433 145.643 183.901 146.77 182.028C147.896 180.154 148.492 178.01 148.493 175.824Z" fill="#263238" stroke="#263238" stroke-miterlimit="10"/>
<path d="M144.001 187.732C150.572 186.676 155.042 180.494 153.986 173.923C152.93 167.353 146.748 162.883 140.177 163.939C133.607 164.994 129.137 171.177 130.193 177.747C131.248 184.318 137.431 188.788 144.001 187.732Z" fill="#263238" stroke="#263238" stroke-miterlimit="10"/>
<path d="M149.025 178.746C150.63 174.922 148.831 170.521 145.007 168.915C141.183 167.31 136.782 169.109 135.176 172.933C133.571 176.757 135.37 181.158 139.194 182.764C143.018 184.369 147.419 182.57 149.025 178.746Z" fill="white" stroke="#263238" stroke-miterlimit="10"/>
<path d="M100.176 163.774H94.5173C91.3596 163.833 88.3509 165.128 86.1384 167.382C83.9259 169.636 82.6864 172.668 82.6864 175.826C82.6864 178.984 83.9259 182.016 86.1384 184.27C88.3509 186.524 91.3596 187.819 94.5173 187.877H100.176C103.334 187.819 106.342 186.524 108.555 184.27C110.767 182.016 112.007 178.984 112.007 175.826C112.007 172.668 110.767 169.636 108.555 167.382C106.342 165.128 103.334 163.833 100.176 163.774Z" fill="#263238" stroke="#263238" stroke-miterlimit="10"/>
<path d="M216.455 175.824C216.456 173.635 215.861 171.487 214.733 169.611C213.605 167.735 211.986 166.202 210.052 165.177V163.766H204.393C201.236 163.825 198.227 165.12 196.014 167.374C193.802 169.627 192.562 172.659 192.562 175.818C192.562 178.976 193.802 182.008 196.014 184.262C198.227 186.516 201.236 187.811 204.393 187.869H210.052V186.459C211.984 185.434 213.6 183.903 214.728 182.029C215.856 180.156 216.453 178.011 216.455 175.824Z" fill="#263238" stroke="#263238" stroke-miterlimit="10"/>
<path d="M213.025 187.52C219.473 185.873 223.365 179.311 221.718 172.863C220.071 166.415 213.508 162.524 207.061 164.171C200.613 165.818 196.722 172.38 198.369 178.828C200.016 185.275 206.578 189.167 213.025 187.52Z" fill="#263238" stroke="#263238" stroke-miterlimit="10"/>
<path d="M211.924 183.09C215.941 182.058 218.361 177.965 217.329 173.949C216.296 169.932 212.203 167.512 208.187 168.544C204.17 169.576 201.75 173.669 202.782 177.686C203.814 181.703 207.907 184.123 211.924 183.09Z" fill="white" stroke="#263238" stroke-miterlimit="10"/>
<path d="M249.918 108.125H107.381V175.458H129.062V171.901C129.063 168.444 130.437 165.129 132.881 162.685C135.326 160.241 138.641 158.868 142.098 158.868C143.81 158.868 145.505 159.204 147.087 159.859C148.668 160.514 150.105 161.474 151.316 162.684C152.527 163.894 153.487 165.331 154.142 166.912C154.797 168.494 155.135 170.189 155.135 171.901V175.458H196.946V171.901C196.946 168.444 198.319 165.129 200.763 162.685C203.207 160.241 206.522 158.868 209.978 158.868C211.69 158.865 213.387 159.199 214.97 159.852C216.553 160.505 217.992 161.463 219.205 162.672C220.417 163.881 221.38 165.318 222.037 166.899C222.694 168.48 223.033 170.176 223.035 171.888V175.458H237.634L248.799 172.316C249.672 172.072 250.44 171.549 250.987 170.827C251.535 170.105 251.831 169.224 251.83 168.319V110.037C251.83 109.53 251.629 109.044 251.27 108.685C250.911 108.326 250.425 108.125 249.918 108.125Z" fill="#005597" stroke="#263238" stroke-miterlimit="10"/>
<path d="M107.381 108.125H62.2594C61.7849 108.124 61.3149 108.217 60.8763 108.399C60.4378 108.58 60.0393 108.846 59.7035 109.181C59.3678 109.516 59.1015 109.915 58.9198 110.353C58.7381 110.791 58.6445 111.261 58.6445 111.736V168.553C58.6449 169.96 59.2041 171.309 60.199 172.304L61.552 173.657C62.6357 174.739 64.1043 175.346 65.6357 175.347H110.996V111.736C110.995 110.778 110.613 109.859 109.936 109.182C109.258 108.505 108.339 108.125 107.381 108.125Z" fill="#005597" stroke="#263238" stroke-miterlimit="10"/>
<path d="M60.4828 112.126V154.978L68.7282 156.722C69.5206 156.889 70.3283 156.973 71.1381 156.972H92.1115C93.4267 156.973 94.7324 156.75 95.9731 156.314L107.981 152.091V112.126C107.987 111.779 107.924 111.434 107.796 111.111C107.668 110.788 107.478 110.494 107.236 110.244C106.994 109.995 106.706 109.796 106.387 109.658C106.068 109.52 105.726 109.446 105.378 109.441H63.0819C62.3813 109.453 61.714 109.742 61.2267 110.246C60.7394 110.749 60.4718 111.426 60.4828 112.126Z" fill="#263238" stroke="#263238" stroke-miterlimit="10"/>
<path d="M62.0579 170.622H105.892C105.892 170.622 106.563 171.67 108.771 173.5" stroke="#263238" stroke-miterlimit="10"/>
<path d="M72.0305 168.261H91.1945" stroke="#263238" stroke-miterlimit="10"/>
<path d="M106.678 161.434L94.2747 165.913C94.2747 165.913 95.9197 168.524 96.7052 168.792C97.4906 169.059 105.892 168.792 105.892 168.792C105.892 168.792 109.042 166.949 106.678 161.434Z" fill="#263238" stroke="#263238" stroke-miterlimit="10"/>
<path d="M101.817 164.679L105.975 163.758C105.975 163.758 105.975 166.53 105.358 166.834C104.741 167.139 101.336 167.718 101.336 167.718L101.817 164.679Z" fill="white" stroke="#263238" stroke-miterlimit="10"/>
<path d="M102.434 166.452C102.434 166.832 102.321 167.205 102.109 167.521C101.898 167.838 101.597 168.084 101.246 168.23C100.894 168.376 100.507 168.414 100.134 168.339C99.7603 168.265 99.4174 168.082 99.1482 167.813C98.8791 167.543 98.6958 167.201 98.6215 166.827C98.5473 166.454 98.5854 166.067 98.731 165.715C98.8767 165.364 99.1234 165.063 99.4399 164.851C99.7564 164.64 100.128 164.527 100.509 164.527C101.02 164.527 101.509 164.73 101.87 165.091C102.231 165.452 102.434 165.941 102.434 166.452Z" fill="white" stroke="#263238" stroke-miterlimit="10"/>
<path d="M98.6462 166.92C98.647 167.209 98.5622 167.491 98.4025 167.731C98.2429 167.971 98.0155 168.158 97.7494 168.269C97.4832 168.379 97.1901 168.409 96.9074 168.353C96.6246 168.297 96.3648 168.158 96.161 167.954C95.9571 167.75 95.8184 167.49 95.7623 167.208C95.7063 166.925 95.7355 166.632 95.8462 166.366C95.9569 166.099 96.1441 165.872 96.3841 165.712C96.6242 165.553 96.9062 165.468 97.1945 165.469C97.5791 165.47 97.9478 165.623 98.2198 165.895C98.4918 166.167 98.6451 166.536 98.6462 166.92Z" fill="white" stroke="#263238" stroke-miterlimit="10"/>
<path d="M60.6268 161.434L70.1758 165.913C70.1758 165.913 68.9133 168.524 68.3047 168.792C67.696 169.059 61.2313 168.792 61.2313 168.792C61.2313 168.792 58.8091 166.949 60.6268 161.434Z" fill="#263238" stroke="#263238" stroke-miterlimit="10"/>
<path d="M64.3691 164.679L61.1696 163.758C61.1696 163.758 61.1696 166.53 61.6425 166.834C62.1154 167.139 64.7392 167.718 64.7392 167.718L64.3691 164.679Z" fill="white" stroke="#263238" stroke-miterlimit="10"/>
<path d="M63.8838 166.452C63.8838 167.513 64.5459 168.376 65.3643 168.376C66.1827 168.376 66.8448 167.513 66.8448 166.452C66.8448 165.391 66.1827 164.527 65.3643 164.527C64.5459 164.527 63.8838 165.387 63.8838 166.452Z" fill="white" stroke="#263238" stroke-miterlimit="10"/>
<path d="M67.9304 168.376C68.5482 168.376 69.049 167.725 69.049 166.921C69.049 166.116 68.5482 165.465 67.9304 165.465C67.3127 165.465 66.8119 166.116 66.8119 166.921C66.8119 167.725 67.3127 168.376 67.9304 168.376Z" fill="white" stroke="#263238" stroke-miterlimit="10"/>
<path d="M97.1945 113.315H71.278V118.024H97.1945V113.315Z" fill="#CCCCCC" stroke="#263238" stroke-miterlimit="10"/>
<path d="M106.608 120.808H61.8563V151.047H106.608V120.808Z" fill="#CCCCCC" stroke="#263238" stroke-miterlimit="10"/>
<path d="M61.8563 145.524L86.572 120.808H75.596L61.8563 134.543V145.524Z" fill="white" stroke="#263238" stroke-miterlimit="10"/>
<path d="M88.875 148.427H94.1102C87.7276 147.111 81.1438 147.111 74.7612 148.427H88.6242L91.289 151.852H92.7078L88.9696 148.476L88.875 148.427Z" fill="#263238" stroke="#263238" stroke-miterlimit="10"/>
<path d="M86.2678 172.382H76.6776V175.334H86.2678V172.382Z" fill="white" stroke="#263238" stroke-miterlimit="10"/>
<path d="M112.341 114.832V158.136H124.04C125.887 158.136 128.379 155.426 128.379 155.426L133.536 150.08H249.095V114.832H112.341Z" fill="#263238" stroke="#263238" stroke-miterlimit="10"/>
<path d="M98.9464 115.626C98.4956 115.626 98.0632 115.805 97.744 116.123C97.4248 116.442 97.245 116.874 97.2439 117.324V121.437H98.5845V117.324C98.5845 117.228 98.6226 117.136 98.6905 117.069C98.7584 117.001 98.8504 116.963 98.9464 116.963H99.8594C100.053 116.963 100.291 117.695 100.357 117.834C100.569 118.334 100.922 118.762 101.372 119.065C101.823 119.368 102.351 119.533 102.894 119.541H111.892V115.626H98.9464ZM110.556 118.205H102.894C102.663 118.205 102.435 118.148 102.23 118.039C102.026 117.93 101.851 117.772 101.722 117.579L101.311 116.963H110.552L110.556 118.205Z" fill="white" stroke="#263238" stroke-miterlimit="10"/>
<path d="M101.521 119.804H96.8202C96.2002 119.804 95.6975 120.307 95.6975 120.927V132.096C95.6975 132.716 96.2002 133.219 96.8202 133.219H101.521C102.141 133.219 102.643 132.716 102.643 132.096V120.927C102.643 120.307 102.141 119.804 101.521 119.804Z" fill="white" stroke="#263238" stroke-miterlimit="10"/>
<path d="M129.526 119.936H113.792V141.444H129.526V119.936Z" fill="white" stroke="#263238" stroke-miterlimit="10"/>
<path d="M148.653 119.936H132.919V148.332H148.653V119.936Z" fill="white" stroke="#263238" stroke-miterlimit="10"/>
<path d="M167.78 119.936H152.046V148.332H167.78V119.936Z" fill="white" stroke="#263238" stroke-miterlimit="10"/>
<path d="M186.907 119.936H171.173V148.332H186.907V119.936Z" fill="white" stroke="#263238" stroke-miterlimit="10"/>
<path d="M206.034 119.936H190.3V144.113H206.034V119.936Z" fill="white" stroke="#263238" stroke-miterlimit="10"/>
<path d="M225.165 119.936H209.431V144.113H225.165V119.936Z" fill="white" stroke="#263238" stroke-miterlimit="10"/>
<path d="M235.841 119.936H228.558V135.777H235.841V119.936Z" fill="white" stroke="#263238" stroke-miterlimit="10"/>
<path d="M244.292 119.936H237.009V135.777H244.292V119.936Z" fill="white" stroke="#263238" stroke-miterlimit="10"/>
<path d="M129.526 144.072H113.792V150.475H129.526V144.072Z" fill="white" stroke="#263238" stroke-miterlimit="10"/>
<path d="M239.258 158.93H245.287" stroke="#263238" stroke-miterlimit="10"/>
<path d="M239.258 160.69H245.287" stroke="#263238" stroke-miterlimit="10"/>
<path d="M239.258 162.446H245.287" stroke="#263238" stroke-miterlimit="10"/>
<path d="M239.258 164.206H245.287" stroke="#263238" stroke-miterlimit="10"/>
<path d="M239.258 165.962H245.287" stroke="#263238" stroke-miterlimit="10"/>
<path d="M239.258 167.722H245.287" stroke="#263238" stroke-miterlimit="10"/>
<path d="M239.258 169.478H245.287" stroke="#263238" stroke-miterlimit="10"/>
<path d="M239.258 171.239H245.287" stroke="#263238" stroke-miterlimit="10"/>
<path d="M80.7941 164.486C83.3152 164.486 85.3589 163.609 85.3589 162.528C85.3589 161.447 83.3152 160.571 80.7941 160.571C78.273 160.571 76.2293 161.447 76.2293 162.528C76.2293 163.609 78.273 164.486 80.7941 164.486Z" fill="white" stroke="#263238" stroke-miterlimit="10"/>
<path d="M132.59 159.263H128.938V161.089H132.59V159.263Z" fill="white" stroke="#263238" stroke-miterlimit="10"/>
</svg>
